<svg xmlns="http://www.w3.org/2000/svg" fill="none" viewBox="0 0 246 246"><g clip-path="url(#a)"><g filter="url(#b)"><path fill="url(#c)" d="M0 115C0 51.487 51.487 0 115 0h12c65.722 0 119 53.278 119 119v8c0 65.722-53.278 119-119 119h-4C55.069 246 0 190.931 0 123v-8Z"/></g><mask id="e" width="144" height="74" x="51" y="137" maskUnits="userSpaceOnUse" style="mask-type:alpha"><path fill="url(#d)" d="M72.2 137.5c-5.607 0-8.411 0-11.553 1.42-4.265 1.927-8.808 8.19-9.316 12.843-.374 3.427.184 5.136 1.3 8.554a73.5 73.5 0 0 0 140.174-1.383c1.041-3.412 1.561-5.117 1.165-8.29-.543-4.355-4.761-10.051-8.768-11.84-2.919-1.304-5.597-1.304-10.952-1.304H72.2Z"/></mask><g mask="url(#e)"><g filter="url(#f)"><path fill="url(#g)" d="M72.2 137.5c-5.607 0-8.411 0-11.553 1.42-4.265 1.927-8.808 8.19-9.316 12.843-.374 3.427.184 5.136 1.3 8.554a73.5 73.5 0 0 0 140.174-1.383c1.041-3.412 1.561-5.117 1.165-8.29-.543-4.355-4.761-10.051-8.768-11.84-2.919-1.304-5.597-1.304-10.952-1.304H72.2Z"/></g><g filter="url(#h)"><path fill="#fff" d="M51.459 141.68c-2.782-6.378 1.7-13.68 8.658-13.68h123.654c1.509 0-2.262 0-1.243.177 4.734.822 10.863 11.312 9.255 15.839-.346.975 4.792-8.143 2.737-4.496-2.609 4.629-3.002 12.48-8.316 12.48H55.862c-3.855 0-2.862-6.787-4.403-10.32Z"/></g></g><mask id="j" width="63" height="91" x="92" y="155" maskUnits="userSpaceOnUse" style="mask-type:alpha"><path fill="url(#i)" d="M153.421 159c-.03-1.886-.045-2.829-.64-3.414-.595-.586-1.538-.586-3.423-.586H95.951c-1.885 0-2.828 0-3.405.586-.576.585-.561 1.528-.531 3.413l1.311 82.755c.03 1.886.045 2.828.64 3.414.595.586 1.538.586 3.424.586h53.406c1.886 0 2.828 0 3.405-.586.576-.586.561-1.528.532-3.414L153.421 159Z"/></mask><g mask="url(#j)"><g filter="url(#k)"><path fill="url(#l)" d="M153.675 174.998c-.15-9.427-.224-14.141-3.2-17.069C147.5 155 142.786 155 133.358 155h-21.407c-9.428 0-14.142 0-17.024 2.929-2.883 2.928-2.808 7.642-2.659 17.068l.805 50.759c.15 9.427.224 14.141 3.2 17.069 2.975 2.929 7.689 2.929 17.117 2.929h21.406c9.428 0 14.142 0 17.025-2.929 2.882-2.928 2.808-7.642 2.658-17.069l-.804-50.758Z"/></g><path fill="url(#m)" d="M140 210.035c0 3.257-1.118 6.032-3.352 8.324-1.605 1.676-3.626 2.933-6.064 3.77-1.622.558-2.855 1.993-2.855 3.709 0 1.247-.399 2.252-1.198 3.016-.758.764-1.755 1.146-2.992 1.146-1.238 0-2.255-.382-3.053-1.146-.759-.764-1.138-1.769-1.138-3.016 0-1.551-1.158-2.843-2.676-3.161-3.3-.691-6.199-1.849-8.697-3.474-.718-.442-1.237-.945-1.556-1.508-.28-.563-.419-1.307-.419-2.232 0-1.206.339-2.251 1.017-3.136.719-.885 1.557-1.327 2.514-1.327.479 0 .958.08 1.437.241.479.161 1.098.463 1.856.905 1.756.965 3.392 1.649 4.908 2.051 1.517.402 3.133.603 4.849.603 2.115 0 3.711-.342 4.789-1.025 1.117-.724 1.676-1.79 1.676-3.197 0-.845-.34-1.528-1.018-2.051-.639-.563-1.457-1.005-2.454-1.327-.958-.322-2.375-.724-4.25-1.206-2.993-.764-5.447-1.528-7.363-2.292-1.915-.805-3.572-2.031-4.968-3.68-1.397-1.689-2.095-3.941-2.095-6.755 0-3.217 1.117-6.012 3.352-8.384 1.613-1.713 3.6-3.006 5.961-3.881 1.647-.61 2.898-2.083 2.898-3.84 0-1.206.399-2.192 1.197-2.956.798-.804 1.796-1.206 2.993-1.206 1.237 0 2.235.382 2.993 1.146.798.764 1.197 1.769 1.197 3.016 0 1.632 1.197 2.998 2.766 3.45 2.352.676 4.662 1.738 6.931 3.185.719.482 1.218 1.025 1.497 1.628.319.563.479 1.267.479 2.112 0 1.206-.359 2.251-1.078 3.136-.718.885-1.556 1.327-2.514 1.327-.479 0-.938-.08-1.377-.241-.439-.161-1.077-.463-1.915-.905a47.609 47.609 0 0 0-1.856-.965 13.15 13.15 0 0 0-3.112-1.206 12.074 12.074 0 0 0-3.472-.483c-1.796 0-3.253.402-4.37 1.206-1.117.764-1.676 1.81-1.676 3.137 0 1.287.639 2.252 1.916 2.895 1.277.643 3.292 1.287 6.045 1.93 2.953.684 5.368 1.408 7.243 2.172 1.916.764 3.552 1.99 4.909 3.679 1.396 1.689 2.095 3.961 2.095 6.816Z"/></g><g filter="url(#n)"><g filter="url(#o)"><circle cx="66" cy="76" r="47" fill="#2DE878"/></g><g filter="url(#p)"><ellipse cx="86.329" cy="88.15" fill="#fff" fill-opacity=".81" rx="14.074" ry="26.112" transform="rotate(17.65 86.329 88.15)"/></g><path fill="url(#q)" d="M86 86.158c0 3.708-1.282 6.867-3.845 9.476-1.846 1.913-4.172 3.346-6.978 4.3-1.849.628-3.253 2.261-3.253 4.214 0 1.419-.458 2.563-1.373 3.433-.87.87-2.014 1.305-3.433 1.305-1.42 0-2.586-.435-3.502-1.305-.87-.87-1.304-2.014-1.304-3.433 0-1.766-1.32-3.236-3.048-3.594-3.795-.786-7.127-2.106-9.998-3.959-.824-.504-1.42-1.076-1.785-1.716-.32-.641-.481-1.488-.481-2.541 0-1.373.39-2.563 1.167-3.57.824-1.007 1.785-1.511 2.884-1.511.55 0 1.099.092 1.648.275.55.183 1.259.526 2.129 1.03 2.014 1.098 3.89 1.876 5.63 2.334 1.74.458 3.593.687 5.561.687 2.426 0 4.257-.39 5.493-1.168 1.282-.824 1.923-2.037 1.923-3.639 0-.96-.39-1.739-1.167-2.334-.733-.64-1.671-1.144-2.816-1.51-1.098-.367-2.723-.825-4.874-1.374-3.434-.87-6.249-1.74-8.446-2.61-2.197-.915-4.097-2.31-5.699-4.187-1.602-1.923-2.403-4.486-2.403-7.69 0-3.663 1.282-6.844 3.845-9.545 1.855-1.954 4.142-3.43 6.86-4.425 1.877-.687 3.302-2.364 3.302-4.363 0-1.374.458-2.495 1.373-3.365.916-.915 2.06-1.373 3.433-1.373 1.42 0 2.564.435 3.433 1.305.916.87 1.374 2.014 1.374 3.433 0 1.858 1.362 3.412 3.15 3.92 2.705.77 5.363 1.98 7.973 3.633.824.549 1.396 1.167 1.716 1.853.367.641.55 1.442.55 2.404 0 1.373-.412 2.563-1.236 3.57-.824 1.007-1.785 1.51-2.884 1.51-.55 0-1.076-.091-1.58-.274-.503-.183-1.235-.526-2.196-1.03-.32-.183-1.03-.55-2.129-1.099a15.2 15.2 0 0 0-3.57-1.373c-1.236-.366-2.564-.55-3.983-.55-2.06 0-3.73.459-5.012 1.374-1.282.87-1.923 2.06-1.923 3.57 0 1.465.733 2.564 2.198 3.296 1.464.733 3.776 1.465 6.934 2.197 3.388.779 6.157 1.602 8.308 2.472 2.198.87 4.075 2.266 5.63 4.189C85.2 80.322 86 82.908 86 86.158Z"/><g filter="url(#r)"><circle cx="179" cy="76" r="47" fill="#2DE878"/></g><g filter="url(#s)"><ellipse cx="199.329" cy="88.15" fill="#fff" fill-opacity=".81" rx="14.074" ry="26.112" transform="rotate(17.65 199.329 88.15)"/></g><path fill="url(#t)" d="M199 86.158c0 3.708-1.282 6.867-3.845 9.476-1.846 1.913-4.172 3.346-6.978 4.3-1.848.628-3.253 2.261-3.253 4.214 0 1.419-.457 2.563-1.373 3.433-.87.87-2.014 1.305-3.433 1.305s-2.586-.435-3.502-1.305c-.87-.87-1.304-2.014-1.304-3.433 0-1.766-1.319-3.236-3.048-3.594-3.795-.786-7.127-2.106-9.998-3.959-.824-.504-1.419-1.076-1.785-1.716-.321-.641-.481-1.488-.481-2.541 0-1.373.389-2.563 1.167-3.57.824-1.007 1.785-1.511 2.884-1.511.549 0 1.099.092 1.648.275.549.183 1.259.526 2.128 1.03 2.015 1.098 3.891 1.876 5.631 2.334 1.739.458 3.593.687 5.561.687 2.426 0 4.257-.39 5.493-1.168 1.282-.824 1.923-2.037 1.923-3.639 0-.96-.389-1.739-1.167-2.334-.733-.64-1.671-1.144-2.816-1.51-1.098-.367-2.723-.825-4.875-1.374-3.433-.87-6.248-1.74-8.445-2.61-2.197-.915-4.097-2.31-5.699-4.187-1.602-1.923-2.403-4.486-2.403-7.69 0-3.663 1.282-6.844 3.845-9.545 1.855-1.954 4.142-3.43 6.86-4.425 1.878-.687 3.302-2.364 3.302-4.363 0-1.374.458-2.495 1.373-3.365.916-.915 2.06-1.373 3.433-1.373 1.419 0 2.564.435 3.433 1.305.916.87 1.374 2.014 1.374 3.433 0 1.858 1.362 3.412 3.149 3.92 2.706.77 5.364 1.98 7.974 3.633.824.549 1.396 1.167 1.716 1.853.367.641.55 1.442.55 2.404 0 1.373-.412 2.563-1.236 3.57-.824 1.007-1.785 1.51-2.884 1.51a4.583 4.583 0 0 1-1.579-.274c-.504-.183-1.236-.526-2.197-1.03-.321-.183-1.03-.55-2.129-1.099a15.216 15.216 0 0 0-3.57-1.373c-1.236-.366-2.564-.55-3.983-.55-2.06 0-3.73.459-5.012 1.374-1.282.87-1.923 2.06-1.923 3.57 0 1.465.733 2.564 2.198 3.296 1.464.733 3.776 1.465 6.934 2.197 3.388.779 6.157 1.602 8.309 2.472 2.197.87 4.073 2.266 5.63 4.189 1.602 1.922 2.403 4.508 2.403 7.758Z"/></g></g><defs><filter id="b" width="278" height="326" x="-11" y="-24" color-interpolation-filters="sRGB" filterUnits="userSpaceOnUse"><feFlood flood-opacity="0" result="BackgroundImageFix"/><feBlend in="SourceGraphic" in2="BackgroundImageFix" result="shape"/><feColorMatrix in="SourceAlpha" result="hardAlpha" values="0 0 0 0 0 0 0 0 0 0 0 0 0 0 0 0 0 0 127 0"/><feMorphology in="SourceAlpha" radius="8" result="effect1_innerShadow_397_2986"/><feOffset dx="21" dy="73"/><feGaussianBlur stdDeviation="24"/><feComposite in2="hardAlpha" k2="-1" k3="1" operator="arithmetic"/><feColorMatrix values="0 0 0 0 0.682806 0 0 0 0 0.0652778 0 0 0 0 0.783333 0 0 0 0.14 0"/><feBlend in2="shape" result="effect1_innerShadow_397_2986"/><feColorMatrix in="SourceAlpha" result="hardAlpha" values="0 0 0 0 0 0 0 0 0 0 0 0 0 0 0 0 0 0 127 0"/><feOffset dy="-24"/><feGaussianBlur stdDeviation="15.5"/><feComposite in2="hardAlpha" k2="-1" k3="1" operator="arithmetic"/><feColorMatrix values="0 0 0 0 0.943639 0 0 0 0 0.223611 0 0 0 0 0.958333 0 0 0 0.44 0"/><feBlend in2="effect1_innerShadow_397_2986" result="effect2_innerShadow_397_2986"/><feColorMatrix in="SourceAlpha" result="hardAlpha" values="0 0 0 0 0 0 0 0 0 0 0 0 0 0 0 0 0 0 127 0"/><feOffset dx="-11" dy="30"/><feGaussianBlur stdDeviation="15.5"/><feComposite in2="hardAlpha" k2="-1" k3="1" operator="arithmetic"/><feColorMatrix values="0 0 0 0 1 0 0 0 0 0.766722 0 0 0 0 0.693056 0 0 0 0.68 0"/><feBlend in2="effect2_innerShadow_397_2986" result="effect3_innerShadow_397_2986"/></filter><filter id="f" width="142.887" height="77.5" x="51.215" y="137.5" color-interpolation-filters="sRGB" filterUnits="userSpaceOnUse"><feFlood flood-opacity="0" result="BackgroundImageFix"/><feBlend in="SourceGraphic" in2="BackgroundImageFix" result="shape"/><feColorMatrix in="SourceAlpha" result="hardAlpha" values="0 0 0 0 0 0 0 0 0 0 0 0 0 0 0 0 0 0 127 0"/><feOffset dy="4"/><feGaussianBlur stdDeviation="8"/><feComposite in2="hardAlpha" k2="-1" k3="1" operator="arithmetic"/><feColorMatrix values="0 0 0 0 0 0 0 0 0 0 0 0 0 0 0 0 0 0 0.25 0"/><feBlend in2="shape" result="effect1_innerShadow_397_2986"/></filter><filter id="h" width="144.384" height="27" x="50.623" y="125" color-interpolation-filters="sRGB" filterUnits="userSpaceOnUse"><feFlood flood-opacity="0" result="BackgroundImageFix"/><feBlend in="SourceGraphic" in2="BackgroundImageFix" result="shape"/><feColorMatrix in="SourceAlpha" result="hardAlpha" values="0 0 0 0 0 0 0 0 0 0 0 0 0 0 0 0 0 0 127 0"/><feOffset dy="-3"/><feGaussianBlur stdDeviation="8"/><feComposite in2="hardAlpha" k2="-1" k3="1" operator="arithmetic"/><feColorMatrix values="0 0 0 0 0 0 0 0 0 0 0 0 0 0 0 0 0 0 0.47 0"/><feBlend in2="shape" result="effect1_innerShadow_397_2986"/></filter><filter id="k" width="66.681" height="101.642" x="87.856" y="144.112" color-interpolation-filters="sRGB" filterUnits="userSpaceOnUse"><feFlood flood-opacity="0" result="BackgroundImageFix"/><feBlend in="SourceGraphic" in2="BackgroundImageFix" result="shape"/><feColorMatrix in="SourceAlpha" result="hardAlpha" values="0 0 0 0 0 0 0 0 0 0 0 0 0 0 0 0 0 0 127 0"/><feOffset dy="-13"/><feGaussianBlur stdDeviation="5.444"/><feComposite in2="hardAlpha" k2="-1" k3="1" operator="arithmetic"/><feColorMatrix values="0 0 0 0 0 0 0 0 0 0 0 0 0 0 0 0 0 0 0.25 0"/><feBlend in2="shape" result="effect1_innerShadow_397_2986"/><feColorMatrix in="SourceAlpha" result="hardAlpha" values="0 0 0 0 0 0 0 0 0 0 0 0 0 0 0 0 0 0 127 0"/><feOffset dx="-5" dy="-3"/><feGaussianBlur stdDeviation="2.178"/><feComposite in2="hardAlpha" k2="-1" k3="1" operator="arithmetic"/><feColorMatrix values="0 0 0 0 1 0 0 0 0 1 0 0 0 0 1 0 0 0 0.29 0"/><feBlend in2="effect1_innerShadow_397_2986" result="effect2_innerShadow_397_2986"/><feColorMatrix in="SourceAlpha" result="hardAlpha" values="0 0 0 0 0 0 0 0 0 0 0 0 0 0 0 0 0 0 127 0"/><feOffset dy="-10.888"/><feGaussianBlur stdDeviation="5.444"/><feComposite in2="hardAlpha" k2="-1" k3="1" operator="arithmetic"/><feColorMatrix values="0 0 0 0 0 0 0 0 0 0 0 0 0 0 0 0 0 0 0.14 0"/><feBlend in2="effect2_innerShadow_397_2986" result="effect3_innerShadow_397_2986"/></filter><filter id="n" width="225" height="112" x="10" y="27" color-interpolation-filters="sRGB" filterUnits="userSpaceOnUse"><feFlood flood-opacity="0" result="BackgroundImageFix"/><feColorMatrix in="SourceAlpha" result="hardAlpha" values="0 0 0 0 0 0 0 0 0 0 0 0 0 0 0 0 0 0 127 0"/><feOffset dy="7"/><feGaussianBlur stdDeviation="4.5"/><feColorMatrix values="0 0 0 0 0.816667 0 0 0 0 0.173542 0 0 0 0 0.482242 0 0 0 0.26 0"/><feBlend in2="BackgroundImageFix" result="effect1_dropShadow_397_2986"/><feBlend in="SourceGraphic" in2="effect1_dropShadow_397_2986" result="shape"/></filter><filter id="o" width="94" height="98.7" x="19" y="24.3" color-interpolation-filters="sRGB" filterUnits="userSpaceOnUse"><feFlood flood-opacity="0" result="BackgroundImageFix"/><feBlend in="SourceGraphic" in2="BackgroundImageFix" result="shape"/><feColorMatrix in="SourceAlpha" result="hardAlpha" values="0 0 0 0 0 0 0 0 0 0 0 0 0 0 0 0 0 0 127 0"/><feOffset dy="-4.7"/><feGaussianBlur stdDeviation="11.75"/><feComposite in2="hardAlpha" k2="-1" k3="1" operator="arithmetic"/><feColorMatrix values="0 0 0 0 0 0 0 0 0 0 0 0 0 0 0 0 0 0 0.25 0"/><feBlend in2="shape" result="effect1_innerShadow_397_2986"/></filter><filter id="p" width="95.153" height="114.501" x="38.752" y="30.9" color-interpolation-filters="sRGB" filterUnits="userSpaceOnUse"><feFlood flood-opacity="0" result="BackgroundImageFix"/><feBlend in="SourceGraphic" in2="BackgroundImageFix" result="shape"/><feGaussianBlur result="effect1_foregroundBlur_397_2986" stdDeviation="16"/></filter><filter id="r" width="94" height="98.7" x="132" y="24.3" color-interpolation-filters="sRGB" filterUnits="userSpaceOnUse"><feFlood flood-opacity="0" result="BackgroundImageFix"/><feBlend in="SourceGraphic" in2="BackgroundImageFix" result="shape"/><feColorMatrix in="SourceAlpha" result="hardAlpha" values="0 0 0 0 0 0 0 0 0 0 0 0 0 0 0 0 0 0 127 0"/><feOffset dy="-4.7"/><feGaussianBlur stdDeviation="11.75"/><feComposite in2="hardAlpha" k2="-1" k3="1" operator="arithmetic"/><feColorMatrix values="0 0 0 0 0 0 0 0 0 0 0 0 0 0 0 0 0 0 0.25 0"/><feBlend in2="shape" result="effect1_innerShadow_397_2986"/></filter><filter id="s" width="95.153" height="114.501" x="151.752" y="30.9" color-interpolation-filters="sRGB" filterUnits="userSpaceOnUse"><feFlood flood-opacity="0" result="BackgroundImageFix"/><feBlend in="SourceGraphic" in2="BackgroundImageFix" result="shape"/><feGaussianBlur result="effect1_foregroundBlur_397_2986" stdDeviation="16"/></filter><linearGradient id="d" x1="122.5" x2="107.5" y1="211" y2="125" gradientUnits="userSpaceOnUse"><stop stop-color="#FB39A2"/><stop offset="1" stop-color="#C520FF"/></linearGradient><linearGradient id="g" x1="122.5" x2="77.5" y1="211" y2="116" gradientUnits="userSpaceOnUse"><stop stop-color="#3A2EC0"/><stop offset="1" stop-color="#FF20C1"/></linearGradient><linearGradient id="i" x1="123" x2="123.19" y1="170" y2="158.003" gradientUnits="userSpaceOnUse"><stop stop-color="#fff"/><stop offset="1" stop-color="#A61FA3" stop-opacity="0"/></linearGradient><linearGradient id="m" x1="123" x2="123" y1="173" y2="230" gradientUnits="userSpaceOnUse"><stop stop-color="#fff"/><stop offset="1" stop-color="#E4E4E4"/></linearGradient><linearGradient id="q" x1="66.5" x2="66.5" y1="44" y2="108.886" gradientUnits="userSpaceOnUse"><stop stop-color="#fff"/><stop offset="1" stop-color="#E4E4E4"/></linearGradient><linearGradient id="t" x1="179.5" x2="179.5" y1="44" y2="108.886" gradientUnits="userSpaceOnUse"><stop stop-color="#fff"/><stop offset="1" stop-color="#E4E4E4"/></linearGradient><radialGradient id="c" cx="0" cy="0" r="1" gradientTransform="rotate(86.517 45.998 65.918) scale(230.426)" gradientUnits="userSpaceOnUse"><stop offset=".576" stop-color="#FFBB0C"/><stop offset="1" stop-color="#FFC907"/></radialGradient><radialGradient id="l" cx="0" cy="0" r="1" gradientTransform="rotate(89.894 -49.842 127.194) scale(69.8176 69.435)" gradientUnits="userSpaceOnUse"><stop stop-color="#11AE63"/><stop offset="1" stop-color="#0FFF61"/></radialGradient><clipPath id="a"><path fill="#fff" d="M0 0h246v246H0z"/></clipPath></defs></svg>