<svg xmlns="http://www.w3.org/2000/svg" viewBox="0 0 64 64"><circle cx="24.5" cy="25.5" r="21.5" style="fill:#e5efef"/><circle cx="13.5" cy="7.5" r="1.5" style="fill:#4c241d"/><circle cx="6" cy="19" r="1" style="fill:#4c241d"/><circle cx="21" cy="15" r="1" style="fill:#4c241d"/><path d="M54 7.463v1.415M54 13.122v1.415M50.463 11h1.415M56.122 11h1.415" style="fill:none;stroke:#4c241d;stroke-linecap:round;stroke-linejoin:round;stroke-width:2px"/><path d="M43.639 31A10 10 0 0 0 46 24.636c0-6.326-14-11.454-14-11.454S18 18.31 18 24.636A10 10 0 0 0 20.361 31Z" style="fill:#e66353;stroke:#4c241d;stroke-linecap:round;stroke-linejoin:round;stroke-width:2px"/><rect width="30" height="3" x="17" y="31" rx="1.5" ry="1.5" style="fill:#fff;stroke:#4c241d;stroke-linecap:round;stroke-linejoin:round;stroke-width:2px"/><path d="M20 43v-9h24v9" style="fill:#b5a19c;stroke:#4c241d;stroke-linecap:round;stroke-linejoin:round;stroke-width:2px"/><path d="M32 13V9" style="fill:none;stroke:#4c241d;stroke-linejoin:round;stroke-width:2px"/><path d="M32.191 3.66a3 3 0 0 0 3.166 5.1" style="fill:none;stroke:#4c241d;stroke-linecap:round;stroke-linejoin:round;stroke-width:2px"/><path d="M31.5 36h0a8.5 8.5 0 0 1 8.5 8.5V53h0-17 0v-8.5a8.5 8.5 0 0 1 8.5-8.5Z" style="fill:#fc8c29;stroke:#4c241d;stroke-linecap:round;stroke-linejoin:round;stroke-width:2px"/><path d="M29 53h5v3h-5z" style="fill:#e7d1c4;stroke:#4c241d;stroke-linecap:round;stroke-linejoin:round;stroke-width:2px"/><path d="M29.025 56h4.95A6.025 6.025 0 0 1 40 62.025v0h0-17 0v0A6.025 6.025 0 0 1 29.025 56Z" style="fill:#bd53b5;stroke:#4c241d;stroke-linecap:round;stroke-linejoin:round;stroke-width:2px"/><path d="M47 40.519V46.5a6.5 6.5 0 0 0 4 6V56h5v-3.5a6.5 6.5 0 0 0 4-6v-5.981ZM4 40.519V46.5a6.5 6.5 0 0 0 4 6V56h5v-3.5a6.5 6.5 0 0 0 4-6v-5.981Z" style="fill:#e7d1c4;stroke:#4c241d;stroke-linecap:round;stroke-linejoin:round;stroke-width:2px"/><path d="M51.025 56h5.95A6.025 6.025 0 0 1 63 62.025v0h0-18 0v0A6.025 6.025 0 0 1 51.025 56ZM57 39v-.053A2.946 2.946 0 0 0 54.053 36h-3.312A3.741 3.741 0 0 0 47 39.741V42.5a6.5 6.5 0 0 0 6.5 6.5h0a6.5 6.5 0 0 0 6.5-6.5v-1.095A2.4 2.4 0 0 0 57.6 39ZM8.025 56h5.95A6.025 6.025 0 0 1 20 62.025v0h0H2h0v0A6.025 6.025 0 0 1 8.025 56ZM14 39v-.053A2.946 2.946 0 0 0 11.053 36H7.741A3.741 3.741 0 0 0 4 39.741V42.5a6.5 6.5 0 0 0 6.5 6.5h0a6.5 6.5 0 0 0 6.5-6.5v-1.095A2.4 2.4 0 0 0 14.6 39Z" style="fill:#6b4f5b;stroke:#4c241d;stroke-linecap:round;stroke-linejoin:round;stroke-width:2px"/></svg>