<svg xmlns="http://www.w3.org/2000/svg" class="icon" viewBox="0 0 1024 1024"><path fill="#37474F" d="M106.667 298.667h106.666v106.666H106.667zm533.333 0h106.667v106.666H640z"/><path fill="#1976D2" d="M362.667 768h128v85.333h-128z"/><path fill="#64B5F6" d="M277.333 234.667S256 290.219 256 362.667c0 63.914 9.408 99.456 42.667 149.333-106.667-42.667-128-106.667-128-106.667V298.667s42.666-64 106.666-64zm298.667 0s21.333 55.552 21.333 128c0 63.914-9.408 99.456-42.666 149.333 106.666-42.667 128-106.667 128-106.667V298.667s-42.667-64-106.667-64z"/><path fill="#90CAF9" d="M576 512c-21.333 64-15.552 85.333-62.677 85.333L426.667 576l-85.334 21.333c-47.125 0-42.666-21.333-64-85.333v-21.333c85.334 64 106.667-85.334 149.334-85.334s64 149.334 149.333 85.334V512zM234.667 234.667s57.578-64 192-64 192 64 192 64h-384z"/><path fill="none" d="M512 682.667a85.333 85.333 0 0 1-170.667 0"/><path fill="#303F9F" d="M320 885.333a106.667 74.667 0 1 0 213.333 0 106.667 74.667 0 1 0-213.333 0Z"/><path fill="#303F9F" d="M832 192v304.896c0 209.088-142.592 290.944-172.864 307.307-1.301.576-93.803 49.13-93.803 49.13H512a32 32 0 0 0 0 64h64c6.912 0 13.675-2.24 19.2-6.4l96-51.925c8.427-5.61 204.8-92.096 204.8-362.133V192h-64z"/><path fill="none" d="M682.667 405.333C682.667 452.46 576 512 533.333 512s-64-106.667-106.666-106.667S362.667 512 320 512s-149.333-59.541-149.333-106.667V320c0-47.125 42.666-85.333 106.666-85.333S405.333 256 426.667 256 512 234.667 576 234.667 682.667 272.875 682.667 320v85.333z"/><path fill="#FF3D00" d="m832 149.333 64-42.666v128l-64 42.666z"/><path fill="#FF3D00" d="M789.333 149.333v-42.666S789.995 64 842.667 64 896 106.667 896 106.667v42.666H789.333z"/></svg>