<svg xmlns="http://www.w3.org/2000/svg" xml:space="preserve" style="shape-rendering:geometricPrecision;text-rendering:geometricPrecision;image-rendering:optimizeQuality;fill-rule:evenodd;clip-rule:evenodd" viewBox="0 0 2048 2048"><g id="SVGRepo_iconCarrier"><defs><style>.fil0{fill:#880e4f}.fil3{fill:#f06292}.fil4{fill:#ff6d00}.fil2{fill:#780b45;fill-rule:nonzero}</style></defs><g id="Layer_x0020_1"><g id="_439855472"><path d="M797 360c17 1 45-73 56-61 91 99 275 90 340 2 15-21 32 66 58 59v427H796V360zM1787 1586c2 39 3 77 5 111l1 33h-255l-1-31-5-114h257zM517 1586l-5 114-1 31H256l1-33c1-34 3-72 5-111h257z" class="fil0"/><path d="M1236 355c99 2 284 19 330 120 37 82 68 153 94 221 26 69 47 133 64 200 20 79 35 225 46 384 7 103 12 212 17 311h-257l-28-595-61-153v777c0 36-15 69-39 93s-57 39-93 39H741c-36 0-69-15-93-39s-39-57-39-93V844l-61 153-28 595H263c4-99 10-209 17-311 11-159 25-305 46-384 17-67 38-132 64-200s57-140 94-221c21-46 68-73 120-90 64-20 142-28 209-32 5 126 98 227 212 227 113 0 206-100 212-225z" style="fill:#c72464"/><path d="M1011 625c-128 0-207-158-205-271l21-33c18-27 30-35 32-7 7 88 55 221 165 230l-13 81zM1037 625c128 0 207-158 205-271l-21-33c-18-27-30-35-32-7-7 88-55 221-165 230l13 81z" class="fil2"/><path d="M1051 776h-79l-17 332 166 135z" class="fil0"/><path d="m1121 1242 9 65-175 190 21-373zM982 608h78l37 208-142 292z" class="fil3"/><path d="M916 584c44 20 90 37 90 48 0 12-46 48-90 48s-30-22-30-48c0-27-14-69 30-48zM1140 584c-44 20-90 37-90 48 0 12 46 48 90 48s30-22 30-48c0-27 14-69-30-48z" class="fil4"/><ellipse cx="1025" cy="632" rx="44" ry="43" style="fill:#e65100"/></g><path d="M0 0h2048v2048H0z" style="fill:none"/></g></g></svg>