<svg xmlns="http://www.w3.org/2000/svg" xml:space="preserve" width="200" height="200" viewBox="0 0 512 512"><path d="m232.017 350.043-4.064 12.396c-2.642 7.992-5.419 16.054-8.603 23.708-3.387 8.264-7.18 16.121-11.448 23.098-2.641 4.133-5.419 7.993-8.467 11.38-15.105 17.002-34.546 21.744-57.577 14.157a63.179 63.179 0 0 1-11.109-4.809c-9.28-5.216-16.528-12.463-21.269-21.269-2.032-3.794-3.59-7.859-4.674-12.125-.474-1.761-.813-3.59-1.084-5.419-2.642-18.017 3.251-36.781 15.037-49.787a52.778 52.778 0 0 1 8.941-7.993c5.283-3.726 12.667-2.438 16.46 2.845a11.505 11.505 0 0 1 1.423 10.702v.136c-.068.068-.068.136-.068.203-.813 2.168-2.235 3.996-4.267 5.419-5.148 3.657-9.212 9.211-11.651 15.579-.271.609-.542 1.355-.813 2.032-.339 1.017-.677 1.965-.881 3.049-1.151 4.742-1.49 9.619-.813 14.36 1.287 8.331 6.096 19.373 22.15 24.656 17.815 5.825 29.804.813 41.319-20.457 5.013-9.28 9.958-21.609 15.173-37.458l3.861-11.786 16.664 5.486 5.76 1.897z" style="fill:#69645a"/><path d="M342.749 13.797c-.136.542-.271 1.151-.474 1.694l-.203.609-10.432 31.701-2.235 6.706-52.496 159.318-.339 1.083-44.571 135.135-5.758-1.896-16.663-5.486 37.12-112.715h.068l6.096-18.56 1.626-4.877v-.068l52.496-159.318 2.235-6.706 10.635-32.311c1.423-4.267 5.08-7.247 9.28-7.925 1.761-.339 3.725-.203 5.622.407 5.623 1.829 8.942 7.586 7.993 13.209z" style="fill:#fbe9b7"/><path d="M461.645 148.781c-32.581-46.671-79.683-83.772-137.449-103.695 17.048 29.137 29.059 61.879 34.64 97.237 4.071 25.793 4.461 51.317 1.564 76.039-3.413 29.119-11.397 57.12-23.304 83.138.032.493.078.984.103 1.478 26.454-32.228 70.938-46.611 112.912-32.779 28.152 9.277 49.668 29.431 61.423 54.262 3.679-63.312-14.584-125.107-49.889-175.68z" style="fill:#d94d33"/><path d="M316.806 42.653c-3.184 1.354-6.367 2.777-9.483 4.334a.517.517 0 0 0-.339.136c-.61.271-1.152.543-1.693.814-5.758 2.709-11.38 5.689-16.934 8.873-1.016.609-2.032 1.22-3.048 1.761-.542.338-1.084.677-1.626.948-2.1 1.287-4.132 2.506-6.164 3.793-.474.339-.948.609-1.423.948-2.98 1.897-5.893 3.794-8.738 5.825-.271.203-.542.339-.813.542a316.313 316.313 0 0 0-7.654 5.623c-6.774 5.148-13.412 10.635-19.847 16.527-2.642 2.371-5.284 4.877-7.925 7.452-18.56 18.356-34.072 38.61-46.468 60.217a278.402 278.402 0 0 0-30.617 80.608c-.339.406-.745.812-1.016 1.219-2.168-41.659-29.33-79.659-71.327-93.478-14.36-4.741-28.992-6.163-43.081-4.673-9.212.948-18.153 3.048-26.688 6.367a110.973 110.973 0 0 0-11.921 5.419 277.074 277.074 0 0 1 96.66-90.159c12.26-6.977 25.063-12.937 38.272-17.95 3.251-1.287 6.503-2.439 9.754-3.522a191.363 191.363 0 0 1 10.635-3.319 317.492 317.492 0 0 1 16.257-4.268 324.88 324.88 0 0 1 16.528-3.251 281.128 281.128 0 0 1 54.529-3.522c3.996.136 8.06.339 12.125.678 8.603.677 17.273 1.761 25.876 3.319a236.35 236.35 0 0 1 9.551 1.829c3.048.609 6.029 1.287 9.077 2.032.474.135 1.016.27 1.558.406 2.574.609 5.148 1.287 7.722 2.032.203.068.474.136.677.203 2.504.679 5.078 1.423 7.584 2.237z" style="fill:#1eb4c7"/><g style="opacity:.1"><path d="M145.567 347.063c-.068.068-.068.136-.068.203-.745 2.371-2.236 4.47-4.403 6.029-5.012 3.522-9.009 8.873-11.515 14.97-.271.609-.542 1.355-.813 2.032-1.964 5.69-2.709 11.854-1.896 17.748-1.761-3.319-2.642-6.706-3.116-9.687-1.964-13.141 3.997-27.84 14.157-35.02 2.777-1.896 4.403-4.809 4.877-7.857.406.407.813.881 1.152 1.354a11.849 11.849 0 0 1 1.625 10.228z" style="fill:#040000"/><path d="M342.631 13.662c-.068.407-.068.813-.203 1.219 0 .203-.068.407-.136.61l-.202.609-10.432 31.701-2.235 6.706-52.496 159.318-.339 1.083-44.571 135.135-4.064 12.396c-2.642 7.992-5.419 16.054-8.603 23.708-3.319 8.331-7.045 16.189-11.38 23.165-2.709 4.336-5.622 8.332-8.738 11.854-15.105 17.07-34.478 21.812-57.576 14.225-3.319-1.084-6.503-2.372-9.416-3.929-10.635-5.486-18.696-13.547-23.64-23.64a50.868 50.868 0 0 1-4.403-12.531c.203.406.406.881.61 1.288 6.164 13.48 17.951 23.64 33.733 28.856 23.031 7.586 42.404 2.844 57.576-14.158 2.168-2.371 4.132-5.013 6.029-7.789 9.754-14.158 16.663-32.717 22.692-51.006l1.423-4.335 42.606-129.378 2.439-7.316 54.054-164.262.542-1.49 12.057-36.713.948-2.845c.271-.609.406-1.287.474-1.897 2.371 2.438 3.59 5.893 3.251 9.416z" style="fill:#040000"/></g><path d="M360.429 218.362c-3.455 29.127-11.448 57.102-23.301 83.113-.881-12.599-3.996-24.927-9.144-36.239-10.025-22.15-27.772-40.71-51.074-51.412a139.941 139.941 0 0 0-5.622-2.372 129.966 129.966 0 0 0-5.419-1.965c-3.793-1.219-7.587-2.235-11.38-2.98v-.068c-3.048-.609-6.096-1.151-9.145-1.422-1.084-.203-2.168-.271-3.183-.339-.203 0-.474-.068-.678-.068-1.016-.068-1.964-.136-2.913-.203h-.271c-1.693-.068-3.319-.135-4.945-.135a103.9 103.9 0 0 0-50.464 13.074c-10.906 6.028-20.728 14.088-28.856 23.708a278.402 278.402 0 0 1 30.617-80.608c12.396-21.608 27.908-41.861 46.468-60.217 2.641-2.575 5.283-5.08 7.925-7.452 6.435-5.892 13.073-11.379 19.847-16.527a316.313 316.313 0 0 1 7.654-5.623c.271-.203.542-.338.813-.542 2.845-2.032 5.758-3.928 8.738-5.825.474-.339.948-.609 1.423-.948a296.68 296.68 0 0 1 7.79-4.741c1.016-.542 2.032-1.152 3.048-1.761 5.554-3.184 11.176-6.164 16.934-8.873.542-.271 1.084-.542 1.693-.814a.514.514 0 0 1 .339-.136c3.116-1.558 6.299-2.98 9.483-4.334 1.219.406 2.439.745 3.658 1.151 1.287.407 2.506.881 3.725 1.287.406.677.813 1.354 1.151 2.099 1.423 2.371 2.777 4.877 4.065 7.316 14.36 26.688 24.453 56.221 29.465 87.787 1.558 9.889 2.574 19.779 2.98 29.533.882 15.716.34 31.296-1.421 46.536z" style="fill:#fefcea"/><path d="m446.59 129.153-62.047 31.226-22.692 11.448-84.062 42.404c-.271-.136-.609-.27-.88-.406l-.339 1.083-7.722 3.861-22.082 11.176h-.068l6.164-18.56 1.626-4.877v-.068c-3.048-.609-6.096-1.151-9.145-1.422-1.084-.203-2.168-.271-3.183-.339-.203 0-.474-.068-.678-.068-1.016-.068-1.964-.203-2.913-.203h-.271c-1.693-.068-3.319-.135-4.945-.135a103.9 103.9 0 0 0-50.464 13.074c-10.906 6.028-20.728 14.088-28.856 23.708-.339.406-.745.812-1.016 1.219-2.168-41.659-29.33-79.659-71.327-93.478-14.36-4.741-28.992-6.163-43.081-4.673-9.212.948-18.153 3.048-26.688 6.367A110.973 110.973 0 0 0 0 155.909 277.074 277.074 0 0 1 96.66 65.75c12.26-6.977 25.063-12.937 38.272-17.95 3.251-1.287 6.503-2.439 9.754-3.522a191.363 191.363 0 0 1 10.635-3.319 317.492 317.492 0 0 1 16.257-4.268 324.88 324.88 0 0 1 16.528-3.251 281.128 281.128 0 0 1 54.529-3.522c4.064.136 8.128.407 12.193.746a279.802 279.802 0 0 1 25.808 3.251 236.35 236.35 0 0 1 9.551 1.829c3.048.609 6.029 1.287 9.077 2.032.474.135 1.016.27 1.558.406 2.574.609 5.148 1.287 7.722 2.032.203.068.474.136.677.203l10.635-32.311c1.423-4.267 5.08-7.247 9.28-7.925 1.761-.339 3.725-.203 5.622.407 5.622 1.828 8.941 7.586 7.993 13.208a6.596 6.596 0 0 1-.339 1.083c0 .203-.068.407-.136.61l-.203.609-10.433 31.703c.339.136.61.27.948.406 1.558.542 2.98 1.152 4.538 1.761h.068c.271.068.61.203.881.338 1.355.542 2.642 1.085 3.997 1.693 1.693.678 3.387 1.355 5.08 2.168.203.068.406.203.609.271a215.437 215.437 0 0 1 12.599 6.096 137.706 137.706 0 0 1 6.977 3.658c2.574 1.422 5.148 2.845 7.654 4.335.136.068.271.136.406.271a192.91 192.91 0 0 1 7.993 4.877c.61.406 1.219.813 1.897 1.22 2.167 1.354 4.267 2.844 6.367 4.267.067.068.203.136.271.203 1.626 1.084 3.184 2.236 4.81 3.455 2.167 1.558 4.267 3.048 6.367 4.674 2.032 1.626 4.132 3.252 6.164 4.878 1.896 1.558 3.793 3.116 5.622 4.742.609.474 1.151.948 1.761 1.49l.136.136c1.626 1.422 3.251 2.844 4.81 4.334.609.542 1.219 1.084 1.829 1.693a197.625 197.625 0 0 1 5.419 5.216 234.95 234.95 0 0 1 12.057 12.599c1.558 1.761 3.048 3.522 4.606 5.284.339.406.746.88 1.084 1.287z" style="opacity:.1;fill:#fff"/></svg>